<svg width="48" height="48" xmlns="http://www.w3.org/2000/svg" fill="#FFB61D">

 <g>
  <title>Layer 1</title>
  <path stroke-dasharray="5,2,2,2,2,2" stroke="null" id="svg_1" d="m16.15,37.75l7.85,-4.7l7.85,4.75l-2.1,-8.9l6.9,-6l-9.1,-0.8l-3.55,-8.4l-3.55,8.35l-9.1,0.8l6.9,6l-2.1,8.9zm-4.5,6.25l3.25,-14.05l-10.9,-9.45l14.4,-1.25l5.6,-13.25l5.6,13.25l14.4,1.25l-10.9,9.45l3.25,14.05l-12.35,-7.45l-12.35,7.45zm12.35,-17.75z"/>
  <path stroke="null" id="svg_5" d="m5.61209,20.83631l13.96375,0l4.31491,-13.71321l4.31491,13.71321l13.96374,0l-11.29689,8.47513l4.31513,13.71321l-11.29689,-8.47537l-11.29689,8.47537l4.31513,-13.71321l-11.29689,-8.47513z"/>
 </g>
</svg>